<svg xmlns="http://www.w3.org/2000/svg" xmlns:xlink="http://www.w3.org/1999/xlink" width="150" zoomAndPan="magnify" viewBox="0 0 112.5 37.5" height="50" preserveAspectRatio="xMidYMid meet" version="1.0"><defs><g/><clipPath id="1a6e8adc1d"><path d="M 32.578125 2.824219 L 92.96875 2.824219 L 92.96875 33.152344 L 32.578125 33.152344 Z M 32.578125 2.824219 " clip-rule="nonzero"/></clipPath></defs><path fill="#7ed957" d="M 54.183594 17.46875 L 51.671875 17.46875 L 51.671875 14.960938 L 54.183594 14.960938 L 54.183594 17.46875 " fill-opacity="1" fill-rule="nonzero"/><path fill="#7ed957" d="M 57.863281 17.46875 L 55.355469 17.46875 L 55.355469 14.960938 L 57.863281 14.960938 L 57.863281 17.46875 " fill-opacity="1" fill-rule="nonzero"/><path fill="#7ed957" d="M 54.183594 18.640625 L 54.183594 21.152344 L 51.671875 21.152344 L 51.671875 18.640625 L 54.183594 18.640625 " fill-opacity="1" fill-rule="nonzero"/><path fill="#7ed957" d="M 57.863281 18.640625 L 57.863281 21.152344 L 55.355469 21.152344 L 55.355469 18.640625 L 57.863281 18.640625 " fill-opacity="1" fill-rule="nonzero"/><g clip-path="url(#1a6e8adc1d)"><path fill="#7ed957" d="M 41.601562 13.328125 L 41.601562 6.816406 L 44.769531 6.816406 L 44.769531 10.800781 L 54.769531 2.824219 L 92.96875 33.289062 L 84.785156 33.289062 L 54.769531 6.371094 L 38.984375 20.527344 L 32.574219 20.527344 L 41.601562 13.328125 " fill-opacity="1" fill-rule="nonzero"/></g><g fill="#ff0000" fill-opacity="1"><g transform="translate(14.784902, 29.184568)"><g><path d="M 5.921875 -2.015625 C 6.253906 -2.015625 6.582031 -2.066406 6.90625 -2.171875 C 7.226562 -2.273438 7.460938 -2.375 7.609375 -2.46875 L 7.84375 -2.625 L 8.78125 -0.71875 C 8.75 -0.695312 8.707031 -0.664062 8.65625 -0.625 C 8.601562 -0.582031 8.472656 -0.507812 8.265625 -0.40625 C 8.066406 -0.300781 7.851562 -0.207031 7.625 -0.125 C 7.394531 -0.0507812 7.09375 0.015625 6.71875 0.078125 C 6.351562 0.140625 5.972656 0.171875 5.578125 0.171875 C 4.660156 0.171875 3.796875 -0.046875 2.984375 -0.484375 C 2.171875 -0.929688 1.515625 -1.546875 1.015625 -2.328125 C 0.515625 -3.117188 0.265625 -3.96875 0.265625 -4.875 C 0.265625 -5.5625 0.410156 -6.21875 0.703125 -6.84375 C 1.003906 -7.476562 1.394531 -8.019531 1.875 -8.46875 C 2.363281 -8.925781 2.929688 -9.289062 3.578125 -9.5625 C 4.222656 -9.832031 4.890625 -9.96875 5.578125 -9.96875 C 6.203125 -9.96875 6.78125 -9.890625 7.3125 -9.734375 C 7.851562 -9.585938 8.234375 -9.4375 8.453125 -9.28125 L 8.78125 -9.0625 L 7.84375 -7.15625 C 7.78125 -7.207031 7.691406 -7.265625 7.578125 -7.328125 C 7.472656 -7.398438 7.253906 -7.488281 6.921875 -7.59375 C 6.585938 -7.707031 6.253906 -7.765625 5.921875 -7.765625 C 5.378906 -7.765625 4.894531 -7.675781 4.46875 -7.5 C 4.039062 -7.332031 3.703125 -7.101562 3.453125 -6.8125 C 3.203125 -6.53125 3.007812 -6.222656 2.875 -5.890625 C 2.75 -5.566406 2.6875 -5.234375 2.6875 -4.890625 C 2.6875 -4.148438 2.960938 -3.484375 3.515625 -2.890625 C 4.078125 -2.304688 4.878906 -2.015625 5.921875 -2.015625 Z M 5.921875 -2.015625 "/></g></g></g><g fill="#ff0000" fill-opacity="1"><g transform="translate(22.706373, 29.184568)"><g><path d="M 1.125 -0.75 C 0.550781 -1.375 0.265625 -2.132812 0.265625 -3.03125 C 0.265625 -3.9375 0.550781 -4.703125 1.125 -5.328125 C 1.695312 -5.953125 2.421875 -6.265625 3.296875 -6.265625 C 4.097656 -6.265625 4.765625 -6.007812 5.296875 -5.5 L 5.296875 -6.078125 L 7.390625 -6.078125 L 7.390625 0 L 5.3125 0 L 5.3125 -0.6875 L 5.296875 -0.6875 C 4.765625 -0.113281 4.097656 0.171875 3.296875 0.171875 C 2.421875 0.171875 1.695312 -0.132812 1.125 -0.75 Z M 2.90625 -4.0625 C 2.632812 -3.800781 2.5 -3.457031 2.5 -3.03125 C 2.5 -2.613281 2.628906 -2.269531 2.890625 -2 C 3.148438 -1.738281 3.492188 -1.609375 3.921875 -1.609375 C 4.335938 -1.609375 4.675781 -1.742188 4.9375 -2.015625 C 5.207031 -2.285156 5.34375 -2.625 5.34375 -3.03125 C 5.34375 -3.457031 5.203125 -3.800781 4.921875 -4.0625 C 4.648438 -4.332031 4.316406 -4.46875 3.921875 -4.46875 C 3.523438 -4.46875 3.1875 -4.332031 2.90625 -4.0625 Z M 2.90625 -4.0625 "/></g></g></g><g fill="#ff0000" fill-opacity="1"><g transform="translate(29.797735, 29.184568)"><g><path d="M 3.359375 -6.265625 C 3.703125 -6.265625 4.039062 -6.222656 4.375 -6.140625 C 4.71875 -6.066406 4.972656 -5.988281 5.140625 -5.90625 L 5.390625 -5.78125 L 4.703125 -4.40625 C 4.234375 -4.664062 3.785156 -4.796875 3.359375 -4.796875 C 3.117188 -4.796875 2.945312 -4.769531 2.84375 -4.71875 C 2.75 -4.664062 2.703125 -4.566406 2.703125 -4.421875 C 2.703125 -4.390625 2.707031 -4.359375 2.71875 -4.328125 C 2.726562 -4.296875 2.742188 -4.265625 2.765625 -4.234375 C 2.785156 -4.210938 2.804688 -4.191406 2.828125 -4.171875 C 2.847656 -4.148438 2.878906 -4.125 2.921875 -4.09375 C 2.972656 -4.070312 3.007812 -4.054688 3.03125 -4.046875 C 3.0625 -4.035156 3.109375 -4.019531 3.171875 -4 C 3.234375 -3.976562 3.28125 -3.957031 3.3125 -3.9375 C 3.351562 -3.925781 3.410156 -3.910156 3.484375 -3.890625 C 3.554688 -3.867188 3.613281 -3.851562 3.65625 -3.84375 C 3.894531 -3.769531 4.101562 -3.6875 4.28125 -3.59375 C 4.46875 -3.507812 4.660156 -3.394531 4.859375 -3.25 C 5.066406 -3.101562 5.222656 -2.914062 5.328125 -2.6875 C 5.441406 -2.457031 5.5 -2.191406 5.5 -1.890625 C 5.5 -0.515625 4.539062 0.171875 2.625 0.171875 C 2.1875 0.171875 1.769531 0.109375 1.375 -0.015625 C 0.988281 -0.148438 0.707031 -0.285156 0.53125 -0.421875 L 0.265625 -0.640625 L 1.125 -2.078125 C 1.1875 -2.023438 1.269531 -1.957031 1.375 -1.875 C 1.476562 -1.800781 1.664062 -1.695312 1.9375 -1.5625 C 2.207031 -1.4375 2.4375 -1.375 2.625 -1.375 C 3.0625 -1.375 3.28125 -1.519531 3.28125 -1.8125 C 3.28125 -1.945312 3.222656 -2.050781 3.109375 -2.125 C 3.003906 -2.195312 2.816406 -2.28125 2.546875 -2.375 C 2.285156 -2.476562 2.082031 -2.566406 1.9375 -2.640625 C 1.550781 -2.835938 1.25 -3.0625 1.03125 -3.3125 C 0.8125 -3.5625 0.703125 -3.894531 0.703125 -4.3125 C 0.703125 -4.925781 0.941406 -5.40625 1.421875 -5.75 C 1.898438 -6.09375 2.546875 -6.265625 3.359375 -6.265625 Z M 3.359375 -6.265625 "/></g></g></g><g fill="#ff0000" fill-opacity="1"><g transform="translate(34.624086, 29.184568)"><g><path d="M 1.125 -0.75 C 0.550781 -1.375 0.265625 -2.132812 0.265625 -3.03125 C 0.265625 -3.9375 0.550781 -4.703125 1.125 -5.328125 C 1.695312 -5.953125 2.421875 -6.265625 3.296875 -6.265625 C 4.097656 -6.265625 4.765625 -6.007812 5.296875 -5.5 L 5.296875 -6.078125 L 7.390625 -6.078125 L 7.390625 0 L 5.3125 0 L 5.3125 -0.6875 L 5.296875 -0.6875 C 4.765625 -0.113281 4.097656 0.171875 3.296875 0.171875 C 2.421875 0.171875 1.695312 -0.132812 1.125 -0.75 Z M 2.90625 -4.0625 C 2.632812 -3.800781 2.5 -3.457031 2.5 -3.03125 C 2.5 -2.613281 2.628906 -2.269531 2.890625 -2 C 3.148438 -1.738281 3.492188 -1.609375 3.921875 -1.609375 C 4.335938 -1.609375 4.675781 -1.742188 4.9375 -2.015625 C 5.207031 -2.285156 5.34375 -2.625 5.34375 -3.03125 C 5.34375 -3.457031 5.203125 -3.800781 4.921875 -4.0625 C 4.648438 -4.332031 4.316406 -4.46875 3.921875 -4.46875 C 3.523438 -4.46875 3.1875 -4.332031 2.90625 -4.0625 Z M 2.90625 -4.0625 "/></g></g></g><g fill="#ff0000" fill-opacity="1"><g transform="translate(41.715449, 29.184568)"><g/></g></g><g fill="#ff0000" fill-opacity="1"><g transform="translate(43.944744, 29.184568)"><g><path d="M 1.0625 -6.078125 L 1.0625 -7.375 C 1.070312 -8.28125 1.285156 -9.003906 1.703125 -9.546875 C 2.128906 -10.097656 2.710938 -10.375 3.453125 -10.375 C 3.765625 -10.375 4.066406 -10.328125 4.359375 -10.234375 C 4.648438 -10.148438 4.859375 -10.0625 4.984375 -9.96875 L 5.1875 -9.828125 L 4.453125 -8.34375 C 4.253906 -8.457031 4.039062 -8.515625 3.8125 -8.515625 C 3.550781 -8.515625 3.378906 -8.425781 3.296875 -8.25 C 3.210938 -8.070312 3.171875 -7.757812 3.171875 -7.3125 L 3.171875 -6.078125 L 4.5625 -6.078125 L 4.5625 -4.484375 L 3.171875 -4.484375 L 3.171875 0 L 1.0625 0 L 1.0625 -4.484375 L 0.1875 -4.484375 L 0.1875 -6.078125 Z M 1.0625 -6.078125 "/></g></g></g><g fill="#ff0000" fill-opacity="1"><g transform="translate(47.383626, 29.184568)"><g><path d="M 0.90625 -9.46875 C 1.15625 -9.71875 1.445312 -9.84375 1.78125 -9.84375 C 2.125 -9.84375 2.414062 -9.71875 2.65625 -9.46875 C 2.90625 -9.226562 3.03125 -8.9375 3.03125 -8.59375 C 3.03125 -8.257812 2.90625 -7.96875 2.65625 -7.71875 C 2.414062 -7.476562 2.125 -7.359375 1.78125 -7.359375 C 1.445312 -7.359375 1.15625 -7.476562 0.90625 -7.71875 C 0.664062 -7.96875 0.546875 -8.257812 0.546875 -8.59375 C 0.546875 -8.9375 0.664062 -9.226562 0.90625 -9.46875 Z M 0.71875 -6.078125 L 0.71875 0 L 2.8125 0 L 2.8125 -6.078125 Z M 0.71875 -6.078125 "/></g></g></g><g fill="#ff0000" fill-opacity="1"><g transform="translate(49.956824, 29.184568)"><g><path d="M 0.71875 0 L 0.71875 -6.078125 L 2.8125 -6.078125 L 2.8125 -5.4375 L 2.828125 -5.4375 C 3.378906 -5.988281 3.960938 -6.265625 4.578125 -6.265625 C 4.878906 -6.265625 5.175781 -6.222656 5.46875 -6.140625 C 5.769531 -6.066406 6.054688 -5.945312 6.328125 -5.78125 C 6.597656 -5.613281 6.816406 -5.375 6.984375 -5.0625 C 7.160156 -4.757812 7.25 -4.410156 7.25 -4.015625 L 7.25 0 L 5.140625 0 L 5.140625 -3.4375 C 5.140625 -3.75 5.039062 -4.023438 4.84375 -4.265625 C 4.644531 -4.503906 4.382812 -4.625 4.0625 -4.625 C 3.738281 -4.625 3.445312 -4.5 3.1875 -4.25 C 2.9375 -4.007812 2.8125 -3.738281 2.8125 -3.4375 L 2.8125 0 Z M 0.71875 0 "/></g></g></g><g fill="#ff0000" fill-opacity="1"><g transform="translate(56.787297, 29.184568)"><g><path d="M 1.125 -0.75 C 0.550781 -1.375 0.265625 -2.132812 0.265625 -3.03125 C 0.265625 -3.9375 0.550781 -4.703125 1.125 -5.328125 C 1.695312 -5.953125 2.421875 -6.265625 3.296875 -6.265625 C 4.097656 -6.265625 4.765625 -6.007812 5.296875 -5.5 L 5.296875 -10.203125 L 7.390625 -10.203125 L 7.390625 0 L 5.3125 0 L 5.3125 -0.6875 L 5.296875 -0.6875 C 4.765625 -0.113281 4.097656 0.171875 3.296875 0.171875 C 2.421875 0.171875 1.695312 -0.132812 1.125 -0.75 Z M 2.90625 -4.0625 C 2.632812 -3.800781 2.5 -3.457031 2.5 -3.03125 C 2.5 -2.613281 2.628906 -2.269531 2.890625 -2 C 3.148438 -1.738281 3.492188 -1.609375 3.921875 -1.609375 C 4.335938 -1.609375 4.675781 -1.742188 4.9375 -2.015625 C 5.207031 -2.285156 5.34375 -2.625 5.34375 -3.03125 C 5.34375 -3.457031 5.203125 -3.800781 4.921875 -4.0625 C 4.648438 -4.332031 4.316406 -4.46875 3.921875 -4.46875 C 3.523438 -4.46875 3.1875 -4.332031 2.90625 -4.0625 Z M 2.90625 -4.0625 "/></g></g></g><g fill="#ff0000" fill-opacity="1"><g transform="translate(63.878662, 29.184568)"><g><path d="M 6.859375 -2.75 L 2.453125 -2.75 C 2.453125 -2.320312 2.585938 -2.003906 2.859375 -1.796875 C 3.140625 -1.597656 3.441406 -1.5 3.765625 -1.5 C 4.109375 -1.5 4.378906 -1.539062 4.578125 -1.625 C 4.773438 -1.71875 5 -1.898438 5.25 -2.171875 L 6.765625 -1.40625 C 6.140625 -0.351562 5.085938 0.171875 3.609375 0.171875 C 2.691406 0.171875 1.90625 -0.140625 1.25 -0.765625 C 0.59375 -1.390625 0.265625 -2.144531 0.265625 -3.03125 C 0.265625 -3.914062 0.59375 -4.675781 1.25 -5.3125 C 1.90625 -5.945312 2.691406 -6.265625 3.609375 -6.265625 C 4.578125 -6.265625 5.363281 -5.984375 5.96875 -5.421875 C 6.570312 -4.867188 6.875 -4.070312 6.875 -3.03125 C 6.875 -2.894531 6.867188 -2.800781 6.859375 -2.75 Z M 2.515625 -3.90625 L 4.828125 -3.90625 C 4.773438 -4.226562 4.648438 -4.472656 4.453125 -4.640625 C 4.253906 -4.804688 3.992188 -4.890625 3.671875 -4.890625 C 3.328125 -4.890625 3.050781 -4.800781 2.84375 -4.625 C 2.632812 -4.445312 2.523438 -4.207031 2.515625 -3.90625 Z M 2.515625 -3.90625 "/></g></g></g><g fill="#ff0000" fill-opacity="1"><g transform="translate(70.021326, 29.184568)"><g><path d="M 0.71875 0 L 0.71875 -6.078125 L 2.8125 -6.078125 L 2.8125 -5.203125 L 2.828125 -5.203125 C 2.847656 -5.234375 2.875 -5.269531 2.90625 -5.3125 C 2.945312 -5.363281 3.023438 -5.445312 3.140625 -5.5625 C 3.265625 -5.6875 3.390625 -5.796875 3.515625 -5.890625 C 3.648438 -5.984375 3.820312 -6.066406 4.03125 -6.140625 C 4.25 -6.222656 4.472656 -6.265625 4.703125 -6.265625 C 4.929688 -6.265625 5.15625 -6.234375 5.375 -6.171875 C 5.59375 -6.109375 5.753906 -6.046875 5.859375 -5.984375 L 6.03125 -5.875 L 5.140625 -4.109375 C 4.878906 -4.328125 4.519531 -4.4375 4.0625 -4.4375 C 3.800781 -4.4375 3.578125 -4.378906 3.390625 -4.265625 C 3.210938 -4.160156 3.085938 -4.023438 3.015625 -3.859375 C 2.941406 -3.703125 2.890625 -3.566406 2.859375 -3.453125 C 2.828125 -3.347656 2.8125 -3.265625 2.8125 -3.203125 L 2.8125 0 Z M 0.71875 0 "/></g></g></g></svg>